<svg xmlns="http://www.w3.org/2000/svg" xmlns:xlink="http://www.w3.org/1999/xlink" width="800" zoomAndPan="magnify" viewBox="0 0 600 599.999999" height="800" preserveAspectRatio="xMidYMid meet" version="1.2"><defs/><g id="d80ffbe23b"><g style="fill:#000000;fill-opacity:1;"><g transform="translate(295.904284, 305.625007)"><path style="stroke:none" d="M 0.625 -11.046875 L 6.859375 -11.046875 C 7.191406 -11.046875 7.421875 -10.957031 7.546875 -10.78125 C 7.679688 -10.613281 7.695312 -10.375 7.59375 -10.0625 L 4.15625 0 L 2.75 0 L 5.859375 -9.03125 C 5.953125 -9.3125 6.0625 -9.582031 6.1875 -9.84375 L 0.6875 -9.84375 Z M 0.625 -11.046875 "/></g></g><path style=" stroke:none;fill-rule:nonzero;fill:#2a9d8f;fill-opacity:1;" d="M 326.097656 319.066406 C 309.121094 317.332031 288.933594 318.644531 272.089844 322.578125 C 262.285156 324.871094 246.539062 329.773438 241.714844 338.34375 C 241.742188 337.851562 241.847656 337.378906 242.03125 336.921875 C 241.734375 330.4375 241.414062 323.425781 241.085938 316.234375 C 241.097656 316.234375 241.105469 316.238281 241.113281 316.238281 C 240.855469 310.53125 240.589844 304.71875 240.332031 298.960938 C 241.25 292.9375 252.351562 286.722656 269.40625 282.695312 C 286.136719 278.75 306.210938 277.34375 323.101562 278.941406 C 341.738281 280.703125 354.558594 285.84375 359.289062 293.429688 C 359.421875 294.144531 359.707031 295.863281 359.730469 297.574219 C 359.789062 301.75 359.867188 306.824219 359.960938 311.976562 C 359.988281 311.96875 360.015625 311.960938 360.042969 311.949219 C 360.199219 320.28125 360.367188 326.761719 360.539062 330.929688 C 355.074219 325.929688 344.917969 320.988281 326.097656 319.066406 "/><path style=" stroke:none;fill-rule:nonzero;fill:#2a9d8f;fill-opacity:1;" d="M 181.140625 279.078125 L 300.996094 224.167969 C 301.460938 223.953125 301.988281 223.953125 302.453125 224.164062 L 418.867188 277.378906 C 419.542969 277.691406 419.984375 278.394531 419.992188 279.179688 C 420 279.964844 419.574219 280.683594 418.90625 281.007812 L 363.847656 307.792969 C 363.789062 304.347656 363.730469 300.652344 363.675781 296.722656 C 363.640625 294.03125 363.089844 291.449219 363.0625 291.339844 L 362.988281 290.992188 L 362.8125 290.691406 C 359.101562 284.398438 349.261719 276.382812 323.449219 273.941406 C 306.179688 272.308594 285.65625 273.746094 268.554688 277.78125 C 257.121094 280.480469 237.738281 286.667969 236.394531 297.792969 L 236.375 297.980469 L 236.382812 298.167969 C 236.578125 302.527344 236.777344 306.914062 236.972656 311.269531 L 181.070312 282.6875 C 180.414062 282.355469 180.003906 281.640625 180.019531 280.859375 C 180.035156 280.082031 180.472656 279.386719 181.140625 279.078125 "/><path style=" stroke:none;fill-rule:nonzero;fill:#2a9d8f;fill-opacity:1;" d="M 388.488281 326.957031 L 392.191406 326.890625 L 391.433594 285.359375 L 387.730469 285.425781 L 388.488281 326.957031 "/><path style=" stroke:none;fill-rule:evenodd;fill:#2a9d8f;fill-opacity:1;" d="M 393.058594 332.023438 C 399.714844 340.992188 401.96875 353.242188 400.847656 368.039062 C 391.375 376.019531 384.230469 375.746094 378.875 369.132812 C 378.773438 340.625 382.96875 326.464844 393.058594 332.023438 "/><path style=" stroke:none;fill-rule:evenodd;fill:#2a9d8f;fill-opacity:1;" d="M 394.664062 372.265625 L 395.441406 343.175781 L 398.222656 370.089844 C 396.988281 370.953125 395.8125 371.683594 394.664062 372.265625 "/><path style=" stroke:none;fill-rule:evenodd;fill:#2a9d8f;fill-opacity:1;" d="M 389.691406 356.265625 L 389.617188 368.621094 L 391.441406 352.476562 L 390.375 373.046875 C 389.203125 373.398438 388.09375 373.59375 387.039062 373.671875 L 386.929688 373.660156 L 389.691406 356.265625 "/><path style=" stroke:none;fill-rule:evenodd;fill:#2a9d8f;fill-opacity:1;" d="M 384.980469 345.632812 L 384.707031 373.515625 C 383.996094 373.265625 383.296875 372.9375 382.628906 372.527344 L 381.957031 359.050781 L 383.785156 358.136719 L 384.980469 345.632812 "/><path style=" stroke:none;fill-rule:evenodd;fill:#2a9d8f;fill-opacity:1;" d="M 389.007812 320.914062 C 385.167969 321.097656 382.210938 324.195312 382.394531 327.832031 C 382.566406 331.464844 385.828125 334.253906 389.664062 334.070312 C 393.5 333.871094 396.472656 330.773438 396.289062 327.140625 C 396.105469 323.503906 392.855469 320.71875 389.007812 320.914062 "/></g></svg>